<svg xmlns="http://www.w3.org/2000/svg" xmlns:svg="http://www.w3.org/2000/svg" id="Layer_1" width="120" height="120" version="1.1" viewBox="0 0 496.8 496.8" xml:space="preserve"><g id="g3158"><path style="display:inline;fill:#&lt;wallbash_4xa2&gt;;fill-opacity:1;stroke-width:1.584" id="path8" d="m 248.87519,445.92001 c 116.5824,0 212.8896,-91.2384 220.4928,-205.2864 0,5.0688 1.2672,8.8704 1.2672,13.9392 0,121.6512 -98.8416,221.76 -221.76,221.76 -121.6512,0 -221.759991,-98.8416 -221.759991,-221.76 0,-5.0688 0,-8.8704 1.2672,-13.9392 7.6032,114.048 103.910391,205.2864 220.492791,205.2864 z"/><circle style="display:inline;fill:#&lt;wallbash_4xa3&gt;;fill-opacity:1;stroke-width:1.584" id="circle12" cx="248.875" cy="243.071" r="221.76"/><path style="display:inline;fill:#&lt;wallbash_4xa1&gt;;fill-opacity:.153846;stroke-width:1.58653" id="path14" d="m 405.74362,86.606184 c 86.3078,86.307816 86.3078,227.192636 0,313.500456 -86.30783,86.3078 -227.19264,86.3078 -313.500453,0"/></g><g id="g3198"><circle style="display:none;fill:#000;fill-opacity:0;stroke-width:1.584" id="circle12-3" cx="110.802" cy="329.835" r="221.76" transform="rotate(-27)"/><path style="display:inline;fill:#&lt;wallbash_4xa1&gt;;fill-opacity:1;stroke-width:1.584" id="path3789" d="m 208.02747,143.07683 c 3.45179,6.7745 1.23663,13.59201 -5.53787,17.04379 v 0 c -6.77451,3.45178 -13.59203,1.23664 -17.04381,-5.53787 l -23.01187,-45.16333 c -3.45177,-6.77452 -1.23662,-13.592033 5.53788,-17.043805 v 0 c 6.77448,-3.451784 13.59202,-1.236634 17.04379,5.537868 z"/><path style="display:inline;fill:#&lt;wallbash_4xa8&gt;;stroke-width:1.584" id="path915" d="m 208.1129,135.57126 c 3.45178,6.77451 1.23662,13.59204 -5.53788,17.04381 v 0 c -6.77448,3.45178 -13.59201,1.23664 -17.04379,-5.53786 l -23.01187,-45.16335 c -3.45179,-6.774503 -1.23664,-13.592022 5.53786,-17.0438 v 0 c 6.77452,-3.451792 13.59203,-1.236639 17.0438,5.537863 z"/></g></svg>